<svg width="70" height="70" viewBox="0 0 70 70" fill="none" xmlns="http://www.w3.org/2000/svg">
<g id="octicon:play-24">
<path id="Vector" d="M27.7083 45.4533V24.5467C27.7088 24.2851 27.7796 24.0284 27.9133 23.8036C28.047 23.5788 28.2387 23.3941 28.4683 23.2688C28.698 23.1436 28.9571 23.0824 29.2185 23.0917C29.4799 23.101 29.734 23.1804 29.9542 23.3217L46.2175 33.7721C46.4234 33.904 46.5929 34.0856 46.7102 34.3002C46.8276 34.5148 46.8891 34.7554 46.8891 35C46.8891 35.2446 46.8276 35.4852 46.7102 35.6998C46.5929 35.9144 46.4234 36.096 46.2175 36.2279L29.9542 46.6812C29.734 46.8225 29.4799 46.9019 29.2185 46.9112C28.9571 46.9205 28.698 46.8593 28.4683 46.7341C28.2387 46.6088 28.047 46.4241 27.9133 46.1993C27.7796 45.9745 27.7088 45.7178 27.7083 45.4562V45.4533Z" fill="white"/>
<path id="Vector_2" d="M2.91666 35C2.91666 17.2813 17.2812 2.91669 35 2.91669C52.7187 2.91669 67.0833 17.2813 67.0833 35C67.0833 52.7188 52.7187 67.0834 35 67.0834C17.2812 67.0834 2.91666 52.7188 2.91666 35ZM35 7.29169C27.6513 7.29169 20.6036 10.2109 15.4072 15.4073C10.2109 20.6036 7.29166 27.6513 7.29166 35C7.29166 42.3487 10.2109 49.3964 15.4072 54.5928C20.6036 59.7891 27.6513 62.7084 35 62.7084C42.3487 62.7084 49.3964 59.7891 54.5927 54.5928C59.7891 49.3964 62.7083 42.3487 62.7083 35C62.7083 27.6513 59.7891 20.6036 54.5927 15.4073C49.3964 10.2109 42.3487 7.29169 35 7.29169Z" fill="white"/>
</g>
</svg>
